<svg width="41" height="41" viewBox="0 0 41 41" fill="none" xmlns="http://www.w3.org/2000/svg">
<path d="M3 9.36896H12.0333C13.4346 9.36896 14.7784 9.92559 15.7692 10.9164C16.76 11.9072 17.3167 13.2511 17.3167 14.6523V15.219C17.3167 16.6202 16.76 17.964 15.7692 18.9548C14.7784 19.9457 13.4346 20.5023 12.0333 20.5023H3V9.36896Z" stroke="#F3D6D6" stroke-width="3" stroke-miterlimit="10"/>
<path d="M3 20.5023H13.3333C14.7981 20.5198 16.197 21.1141 17.2265 22.1561C18.2561 23.1982 18.8334 24.6041 18.8333 26.069C18.8334 27.5338 18.2561 28.9397 17.2265 29.9818C16.197 31.0239 14.7981 31.6181 13.3333 31.6356H3V20.5023Z" stroke="#F3D6D6" stroke-width="3" stroke-miterlimit="10"/>
<path d="M23.6833 23.6856H38C38.0999 21.682 37.4018 19.7205 36.0586 18.2305C34.7154 16.7404 32.8365 15.8434 30.8333 15.7356C28.8331 15.8476 26.9585 16.7465 25.6188 18.2361C24.2791 19.7256 23.5833 21.6848 23.6833 23.6856ZM23.6833 23.6856C23.5833 25.6865 24.2791 27.6456 25.6188 29.1352C26.9585 30.6247 28.8331 31.5236 30.8333 31.6356C31.9755 31.621 33.0961 31.3224 34.0941 30.7667C35.0921 30.2109 35.9361 29.4156 36.55 28.4523" stroke="#F3D6D6" stroke-width="3" stroke-miterlimit="10"/>
<path d="M23.6833 10.9523H38" stroke="#F3D6D6" stroke-width="3" stroke-miterlimit="10"/>
</svg>
