<svg width="41" height="41" viewBox="0 0 41 41" fill="none" xmlns="http://www.w3.org/2000/svg">
<path d="M20.5 38.0023C30.165 38.0023 38 30.1673 38 20.5023C38 10.8373 30.165 3.00229 20.5 3.00229C10.835 3.00229 3 10.8373 3 20.5023C3 30.1673 10.835 38.0023 20.5 38.0023Z" stroke="#F3D6D6" stroke-width="3" stroke-miterlimit="10"/>
<path d="M14.0333 4.23563C17.1155 7.71268 19.7371 11.5722 21.8333 15.719C22.8264 17.6436 23.7057 19.6247 24.4667 21.6523C26.2698 26.3663 27.4737 31.2882 28.05 36.3023" stroke="#F3D6D6" stroke-width="3" stroke-miterlimit="10"/>
<path d="M33.2833 8.53561C30.057 11.7626 26.1427 14.2183 21.8333 15.7189C15.8633 18.0331 9.48096 19.094 3.08333 18.8356" stroke="#F3D6D6" stroke-width="3" stroke-miterlimit="10"/>
<path d="M37.8667 22.519C33.559 21.1491 28.9821 20.8516 24.5333 21.6523C21.1777 22.288 18.02 23.7079 15.3176 25.7962C12.6152 27.8846 10.4448 30.5822 8.98333 33.669" stroke="#F3D6D6" stroke-width="3" stroke-miterlimit="10"/>
</svg>
