<svg width="41" height="41" viewBox="0 0 41 41" fill="none" xmlns="http://www.w3.org/2000/svg">
<path d="M31.6333 3.00229H9.36667C5.85045 3.00229 3 5.85274 3 9.36896V31.6356C3 35.1518 5.85045 38.0023 9.36667 38.0023H31.6333C35.1495 38.0023 38 35.1518 38 31.6356V9.36896C38 5.85274 35.1495 3.00229 31.6333 3.00229Z" stroke="#F3D6D6" stroke-width="3" stroke-miterlimit="10"/>
<path d="M20.5 28.4523C24.8907 28.4523 28.45 24.8929 28.45 20.5023C28.45 16.1116 24.8907 12.5523 20.5 12.5523C16.1093 12.5523 12.55 16.1116 12.55 20.5023C12.55 24.8929 16.1093 28.4523 20.5 28.4523Z" stroke="#F3D6D6" stroke-width="3" stroke-miterlimit="10"/>
<path d="M30.8333 12.5523C32.1496 12.5523 33.2167 11.4852 33.2167 10.1689C33.2167 8.85267 32.1496 7.78561 30.8333 7.78561C29.5171 7.78561 28.45 8.85267 28.45 10.1689C28.45 11.4852 29.5171 12.5523 30.8333 12.5523Z" fill="#F3D6D6"/>
</svg>
