<svg width="72" height="83" viewBox="0 0 72 83" fill="none" xmlns="http://www.w3.org/2000/svg">
<path fill-rule="evenodd" clip-rule="evenodd" d="M0.900002 58.5C1.43333 59.1 2.16667 59.2667 3.1 59C5.03333 58.4667 6.63334 57.9333 7.9 57.4C9.23333 56.9333 10.6 56.5 12 56.1C12.3333 56.3667 12.8 56.5 13.4 56.5C14.3333 56.5 15.0667 56.1333 15.6 55.4C16.5333 55.2667 17.4333 55.1667 18.3 55.1C19.2333 55.0333 20.1 55 20.9 55C22.2333 55 23.5 55.0667 24.7 55.2L24.8918 55.2204L25.0486 55.2373C22.7101 61.9594 20.8349 69.2993 19.4231 77.2569C19.3564 77.5235 19.3231 77.7569 19.3231 77.9569V78.6569C19.3231 80.2569 19.7564 81.3569 20.6231 81.9569C21.4898 82.6235 22.3898 82.9569 23.3231 82.9569C24.0564 82.9569 24.6898 82.7902 25.2231 82.4569C25.9564 81.9236 26.3231 81.3569 26.3231 80.7569C26.3231 80.1569 26.0231 79.5902 25.4231 79.0569C24.8898 78.5902 24.6231 78.1569 24.6231 77.7569C24.6231 77.2235 24.6898 76.3235 24.8231 75.0569C24.9564 73.7235 25.1564 72.2235 25.4231 70.5569C25.6898 68.8902 25.9898 67.3235 26.3231 65.8569C26.6564 64.3235 26.9898 63.0902 27.3231 62.1569C27.6564 61.2235 28.0231 60.2235 28.4231 59.1569C28.8231 58.0902 29.2564 56.9569 29.7231 55.7569C31.0564 55.7569 32.8564 55.6569 35.1231 55.4569C37.4564 55.1902 39.8898 54.7902 42.4231 54.2569C44.9564 53.6569 47.1564 52.9235 49.0231 52.0569C52.9564 50.2569 56.6231 48.4235 60.0231 46.5569C63.4898 44.6235 66.2898 42.4235 68.4231 39.9569C70.5564 37.4902 71.6231 34.5569 71.6231 31.1569C71.6231 28.0902 70.8898 25.7235 69.4231 24.0569C67.9564 22.3235 66.0564 21.0902 63.7231 20.3569C61.4564 19.6235 59.0231 19.2569 56.4231 19.2569C55.4231 19.2569 54.4231 19.3235 53.4231 19.4569C52.4898 19.5235 51.5564 19.6235 50.6231 19.7569C49.3564 19.9569 48.0898 20.3235 46.8231 20.8569C46.6231 19.9235 45.8898 19.4569 44.6231 19.4569C43.8231 19.4569 42.9564 19.7235 42.0231 20.2569C41.1564 20.7235 40.4564 21.4569 39.9231 22.4569C38.0564 26.0569 35.7898 30.5569 33.1231 35.9569C30.8593 40.5411 28.6435 45.6779 26.4758 51.3672C25.5424 51.2195 24.6172 51.0638 23.7 50.9C21.9 50.5667 19.9667 50.4 17.9 50.4C19.2333 47.4667 20.6 44.1333 22 40.4C23.4 36.6 24.8667 32.6333 26.4 28.5C27.9333 24.3667 29.4667 20.2667 31 16.2C32.6 12.1333 34.2 8.36667 35.8 4.9C37.9333 4.76666 39.8333 4.63333 41.5 4.5C43.1667 4.3 45.3333 4.23334 48 4.3C48.9333 4.3 49.6333 4.06667 50.1 3.60001C50.5667 3.06667 50.8 2.56667 50.8 2.1C50.8 1.76667 50.6333 1.46667 50.3 1.2C50.0333 0.866665 49.5333 0.699997 48.8 0.699997C46.4667 0.699997 44.3333 0.599998 42.4 0.400002C40.5333 0.133335 38.4333 0 36.1 0C35.7 0 35.3 0.0333328 34.9 0.0999985H33.6C30.4667 0.233334 27.6 0.466667 25 0.800003C22.4 1.06667 19.5667 1.8 16.5 3C15.9667 3.2 15.5667 3.5 15.3 3.9C15.1 4.3 15 4.73334 15 5.2C15 5.86667 15.2 6.46667 15.6 7C16.0667 7.53333 16.6333 7.8 17.3 7.8C17.5667 7.8 17.9 7.73334 18.3 7.60001C20.5667 6.73333 22.6333 6.16666 24.5 5.9C26.3667 5.56667 28.4667 5.33333 30.8 5.2C29.4 8.33334 28.1333 11.7333 27 15.4C25.8667 19.0667 24.6 22.9667 23.2 27.1C21.8 31.1667 20.0333 35.4667 17.9 40C17.2333 41.4667 16.5 42.7667 15.7 43.9C14.9667 45.0333 14.2667 46.1667 13.6 47.3C13 48.2333 12.4333 49.4667 11.9 51C9.9 51.4667 8.16667 52 6.7 52.6C5.23333 53.2 3.56667 53.7667 1.7 54.3C0.566666 54.5667 0 55.3 0 56.5C0 57.2333 0.299999 57.9 0.900002 58.5ZM38.6231 51.1569C36.4898 51.5569 34.8231 51.7569 33.6231 51.7569H32.3231C31.9898 51.6902 31.7231 51.6569 31.5231 51.6569C32.7231 48.7902 33.9898 45.8902 35.3231 42.9569C36.7231 39.9569 38.0898 37.1235 39.4231 34.4569C40.8231 31.7235 42.0564 29.4235 43.1231 27.5569C43.3231 27.5569 43.6231 27.4902 44.0231 27.3569C45.2898 26.8902 46.1898 26.3569 46.7231 25.7569C47.3231 25.1569 47.8231 24.6235 48.2231 24.1569C48.6231 23.6235 49.1898 23.3569 49.9231 23.3569C51.2564 23.1569 52.5231 23.0569 53.7231 23.0569C56.0564 23.0569 58.1898 23.3902 60.1231 24.0569C62.1231 24.6569 63.7231 25.4902 64.9231 26.5569C66.1231 27.6235 66.7231 28.8569 66.7231 30.2569C67.1898 33.3235 65.5564 36.4235 61.8231 39.5569C58.1564 42.6235 53.2231 45.5235 47.0231 48.2569C43.5564 49.7235 40.7564 50.6902 38.6231 51.1569Z" fill="url(#paint0_linear_5_2)"/>
<path d="M49.8153 63.4604C44.3835 67.2954 38.6615 72.5499 35.0532 76.2221C34.6661 76.616 34.0329 76.6216 33.639 76.2345C33.2451 75.8474 33.2395 75.2143 33.6266 74.8204C37.2841 71.0981 43.0986 65.7543 48.6618 61.8266C51.4373 59.8671 54.2014 58.2231 56.6346 57.3243C58.9964 56.4518 61.4069 56.1517 63.1252 57.4818C63.562 57.8198 63.642 58.4479 63.3039 58.8847C62.9659 59.3214 62.3378 59.4014 61.9011 59.0634C61.0692 58.4195 59.5911 58.3642 57.3276 59.2004C55.1355 60.0101 52.5374 61.5386 49.8153 63.4604Z" fill="url(#paint1_linear_5_2)"/>
<path d="M67.4929 52.5929C67.8834 52.2024 68.5166 52.2024 68.9071 52.5929L69.4071 53.0929C69.7976 53.4834 69.7976 54.1166 69.4071 54.5071C69.0166 54.8976 68.3834 54.8976 67.9929 54.5071L67.4929 54.0071C67.1024 53.6166 67.1024 52.9834 67.4929 52.5929Z" fill="url(#paint2_linear_5_2)"/>
<defs>
<linearGradient id="paint0_linear_5_2" x1="0.574948" y1="-25.8429" x2="18.1266" y2="91.9312" gradientUnits="userSpaceOnUse">
<stop stop-color="#0013C0"/>
<stop offset="0.404027" stop-color="#B500F5"/>
<stop offset="0.975" stop-color="#F5BF00"/>
</linearGradient>
<linearGradient id="paint1_linear_5_2" x1="0.574948" y1="-25.8429" x2="18.1266" y2="91.9312" gradientUnits="userSpaceOnUse">
<stop stop-color="#0013C0"/>
<stop offset="0.404027" stop-color="#B500F5"/>
<stop offset="0.975" stop-color="#F5BF00"/>
</linearGradient>
<linearGradient id="paint2_linear_5_2" x1="0.574948" y1="-25.8429" x2="18.1266" y2="91.9312" gradientUnits="userSpaceOnUse">
<stop stop-color="#0013C0"/>
<stop offset="0.404027" stop-color="#B500F5"/>
<stop offset="0.975" stop-color="#F5BF00"/>
</linearGradient>
</defs>
</svg>
